<svg xmlns="http://www.w3.org/2000/svg" width="40" height="40" viewBox="0 0 40 40" fill="none">
  <g clip-path="url(#clip0_13245_4471)">
    <path d="M28.6575 12.5911C28.6575 11.9007 28.0978 11.3411 27.4075 11.3411L16.1575 11.3411C15.4671 11.3411 14.9075 11.9007 14.9075 12.5911C14.9075 13.2814 15.4671 13.8411 16.1575 13.8411H26.1575V23.8411C26.1575 24.5314 26.7171 25.0911 27.4075 25.0911C28.0978 25.0911 28.6575 24.5314 28.6575 23.8411L28.6575 12.5911ZM13.4762 28.2901L28.2914 13.4749L26.5236 11.7072L11.7084 26.5224L13.4762 28.2901Z" fill="white"/>
    <path d="M-0.655518 41.759C-0.655519 41.0687 -1.21516 40.509 -1.90552 40.509L-13.1555 40.509C-13.8459 40.509 -14.4055 41.0687 -14.4055 41.759C-14.4055 42.4494 -13.8459 43.009 -13.1555 43.009H-3.15552V53.009C-3.15552 53.6994 -2.59587 54.259 -1.90552 54.259C-1.21516 54.259 -0.655518 53.6994 -0.655518 53.009L-0.655518 41.759ZM-15.8368 57.4581L-1.02163 42.6429L-2.7894 40.8752L-17.6046 55.6903L-15.8368 57.4581Z" fill="white"/>
  </g>
  <defs>
    <clipPath id="clip0_13245_4471">
      <rect width="40" height="40" fill="white"/>
    </clipPath>
  </defs>
</svg>