<svg width="18" height="18" viewBox="0 0 18 18" fill="none" xmlns="http://www.w3.org/2000/svg">
<rect width="18" height="18" fill="#686868"/>
<g id="R1">
<path d="M-2101 -4659C-2101 -4660.1 -2100.1 -4661 -2099 -4661H16571C16572.1 -4661 16573 -4660.1 16573 -4659V6783C16573 6784.1 16572.1 6785 16571 6785H-2099C-2100.1 6785 -2101 6784.1 -2101 6783V-4659Z" fill="#444444"/>
<path d="M-2099 -4660H16571V-4662H-2099V-4660ZM16572 -4659V6783H16574V-4659H16572ZM16571 6784H-2099V6786H16571V6784ZM-2100 6783V-4659H-2102V6783H-2100ZM-2099 6784C-2099.55 6784 -2100 6783.55 -2100 6783H-2102C-2102 6784.66 -2100.66 6786 -2099 6786V6784ZM16572 6783C16572 6783.55 16571.6 6784 16571 6784V6786C16572.7 6786 16574 6784.66 16574 6783H16572ZM16571 -4660C16571.6 -4660 16572 -4659.55 16572 -4659H16574C16574 -4660.66 16572.7 -4662 16571 -4662V-4660ZM-2099 -4662C-2100.66 -4662 -2102 -4660.66 -2102 -4659H-2100C-2100 -4659.55 -2099.55 -4660 -2099 -4660V-4662Z" fill="white" fill-opacity="0.1"/>
<g id="Homepage" clip-path="url(#clip0_10514_35147)">
<rect width="1600" height="8502" transform="translate(-99 -3344)" fill="#F2F7FF"/>
<g id="Frame 1618872902">
<g id="Frame 1618872901">
<g id="Frame 1618872195">
<rect width="1600" height="3358" transform="translate(-99 -569)" fill="url(#paint0_linear_10514_35147)"/>
<g id="Frame 1618872869">
<g id="5">
<g id="Frame 1618872108">
<g id="Frame 1618872783">
<g id="Frame 1618871987">
<g id="Frame 1618871986">
<g id="Frame 1618872219">
<g id="Frame 1618872216">
<g id="Frame 1618872905">
<rect id="Rectangle 34626589" x="0.460938" y="0.837036" width="17.1699" height="17.1699" rx="3" fill="#E5F0FF"/>
<path id="Vector 514" d="M5.35742 9.2051L8.18262 12.0303L13.3984 6.81458" stroke="#1877E6"/>
</g>
</g>
</g>
</g>
</g>
</g>
</g>
</g>
<g id="Ellipse 2929" opacity="0.2" filter="url(#filter0_f_10514_35147)">
<path d="M155 464.5C155 523.318 107.766 571 49.5 571C-8.76604 571 -56 523.318 -56 464.5C-56 405.682 -8.76604 358 49.5 358C107.766 358 155 405.682 155 464.5Z" fill="url(#paint1_radial_10514_35147)"/>
</g>
</g>
</g>
</g>
</g>
</g>
</g>
<defs>
<filter id="filter0_f_10514_35147" x="-556" y="-142" width="1211" height="1213" filterUnits="userSpaceOnUse" color-interpolation-filters="sRGB">
<feFlood flood-opacity="0" result="BackgroundImageFix"/>
<feBlend mode="normal" in="SourceGraphic" in2="BackgroundImageFix" result="shape"/>
<feGaussianBlur stdDeviation="250" result="effect1_foregroundBlur_10514_35147"/>
</filter>
<linearGradient id="paint0_linear_10514_35147" x1="800" y1="0" x2="800" y2="3358" gradientUnits="userSpaceOnUse">
<stop offset="0.05" stop-color="white"/>
<stop offset="1" stop-color="#EDF4FA"/>
</linearGradient>
<radialGradient id="paint1_radial_10514_35147" cx="0" cy="0" r="1" gradientUnits="userSpaceOnUse" gradientTransform="translate(52.1281 434.861) rotate(144.488) scale(213.238 209.62)">
<stop stop-color="#5328FF"/>
<stop offset="1" stop-color="#3DE1F7"/>
</radialGradient>
<clipPath id="clip0_10514_35147">
<rect width="1600" height="8502" fill="white" transform="translate(-99 -3344)"/>
</clipPath>
</defs>
</svg>
