<svg width="19" height="17" viewBox="0 0 19 17" fill="none" xmlns="http://www.w3.org/2000/svg">
<g id="Vector">
<path d="M14.7031 0.625L13.5781 6.25L9.07812 16.375L18.0781 5.6875L14.7031 0.625ZM3.45312 0.625L4.57812 6.25L9.07812 16.375L0.078125 5.6875L3.45312 0.625Z" fill="#0D79A7"/>
<path d="M3.45312 0.625L4.57812 6.25L9.07812 16.375L13.5781 6.25L14.7031 0.625H3.45312Z" fill="#49A3C9"/>
<path d="M9.07812 16.375L4.57812 6.25L0.078125 5.6875L9.07812 16.375ZM9.07812 16.375L13.5781 6.25L18.0781 5.6875L9.07812 16.375Z" fill="#07425B"/>
<path d="M9.07817 6.81106L4.57812 6.25L9.07812 16.375L13.5781 6.25L9.07817 6.81106Z" fill="#0D79A7"/>
<path d="M4.57812 6.25L9.07817 0.625L13.5781 6.25L9.07704 6.8125L4.57812 6.25Z" fill="#95D5F0"/>
<path d="M4.57812 6.25L3.45312 0.625H9.07817L4.57812 6.25ZM13.5781 6.25L14.7031 0.625H9.07817L13.5781 6.25Z" fill="#49A3C9"/>
<path d="M4.57812 6.25L3.45312 0.625L0.078125 5.6875L4.57812 6.25ZM13.5781 6.25L14.7031 0.625L18.0781 5.6875L13.5781 6.25Z" fill="#0D79A7"/>
</g>
</svg>
