<svg width="70" height="20" viewBox="0 0 70 20" fill="none" xmlns="http://www.w3.org/2000/svg">
<g id="Laag_1" clip-path="url(#clip0_11068_61)">
<path id="Vector" d="M14.8823 3.61815C14.8823 3.55149 14.8132 3.48483 14.744 3.48483C14.6058 3.48483 13.1539 3.35151 13.1539 3.35151C13.1539 3.35151 12.1168 2.35158 11.9785 2.28492C11.8402 2.15159 11.6328 2.21826 11.5637 2.21826C11.5637 2.21826 11.3563 2.28492 11.0106 2.41824C10.6649 1.48498 10.0426 0.618372 9.00555 0.618372H8.93642C8.65986 0.218401 8.24503 0.0850771 7.89934 0.0850771C5.41036 0.0184153 4.23501 3.0182 3.82018 4.55142C3.26708 4.68474 2.71397 4.88473 2.09173 5.08471C1.53862 5.21804 1.53862 5.2847 1.46948 5.75133C1.40034 6.08464 0.0175781 16.6172 0.0175781 16.6172L11.0106 18.6171L16.9565 17.3505C16.9565 17.3505 14.8823 3.75148 14.8823 3.61815ZM8.86728 2.95153V3.08486L6.86227 3.61815C7.2771 2.21826 7.96848 1.6183 8.59072 1.35165C8.729 1.75162 8.86728 2.21826 8.86728 2.95153ZM7.8302 0.685033C7.96848 0.685033 8.03762 0.751695 8.17589 0.818357C7.34624 1.15167 6.51658 2.01827 6.10175 3.8848L4.5807 4.28477C5.06467 2.95153 6.03261 0.685033 7.8302 0.685033ZM8.24503 8.81777C8.24503 8.81777 7.62279 8.48446 6.79313 8.48446C5.61778 8.48446 5.54864 9.15108 5.54864 9.35107C5.54864 10.2843 8.17589 10.6843 8.17589 12.9508C8.17589 14.7507 7.00054 15.8839 5.41036 15.8839C3.54363 15.8839 2.57569 14.7507 2.57569 14.7507L3.05966 13.1508C3.05966 13.1508 4.0276 13.9507 4.85726 13.9507C5.41036 13.9507 5.61778 13.5508 5.61778 13.2175C5.61778 11.9509 3.47449 11.8842 3.47449 9.8177C3.47449 8.08449 4.78812 6.41795 7.34624 6.41795C8.52159 6.35129 9.00555 6.6846 9.00555 6.6846L8.24503 8.81777ZM9.48952 2.81821V2.61823C9.48952 2.01827 9.42038 1.55164 9.28211 1.15167C9.76608 1.28499 10.1809 1.88495 10.3883 2.55156L9.48952 2.81821Z" fill="#8DB849"/>
<path id="Vector_2" d="M23.9381 10.6179C23.3159 10.2846 23.0393 10.0179 23.0393 9.68462C23.0393 9.21799 23.4542 8.95134 24.1456 8.95134C24.9061 8.95134 25.5975 9.28465 25.5975 9.28465L26.1506 7.68477C26.1506 7.68477 25.6666 7.2848 24.2147 7.2848C22.1405 7.2848 20.7578 8.41805 20.7578 10.0179C20.7578 10.9512 21.4492 11.6178 22.2788 12.0844C22.9702 12.4844 23.2468 12.7511 23.2468 13.151C23.2468 13.551 22.9011 13.951 22.2097 13.951C21.2417 13.951 20.2738 13.4843 20.2738 13.4843L19.7207 15.0842C19.7207 15.0842 20.5504 15.6175 22.0023 15.6175C24.0764 15.6175 25.5975 14.6176 25.5975 12.8177C25.5975 11.8178 24.8369 11.0845 23.9381 10.6179ZM32.3039 7.21813C31.2668 7.21813 30.4371 7.68477 29.8149 8.41805L30.7137 3.88504H28.363L26.0814 15.4175H28.4321L29.1926 11.4845C29.4692 10.0179 30.2989 9.08467 31.0594 9.08467C31.6125 9.08467 31.8199 9.41797 31.8199 9.95127C31.8199 10.2846 31.8199 10.6179 31.7508 10.9512L30.852 15.4842H33.2027L34.1015 10.8179C34.1706 10.3512 34.2397 9.75128 34.2397 9.35131C34.2397 8.01808 33.5484 7.21813 32.3039 7.21813ZM38.3189 13.8177C37.4892 13.8177 37.2127 13.151 37.2127 12.3511C37.2127 11.0845 37.9041 8.95134 39.1486 8.95134C39.9782 8.95134 40.2548 9.61796 40.2548 10.2846C40.2548 11.7511 39.5634 13.8177 38.3189 13.8177ZM39.4942 7.21813C36.6596 7.21813 34.7928 9.68462 34.7928 12.4178C34.7928 14.151 35.8991 15.5509 38.0423 15.5509C40.8079 15.5509 42.6746 13.151 42.6746 10.3512C42.6746 8.75136 41.7067 7.21813 39.4942 7.21813ZM46.4081 13.8843C45.7858 13.8843 45.4401 13.551 45.4401 13.551L45.855 11.4178C46.1315 10.0179 46.892 9.08467 47.7217 9.08467C48.4131 9.08467 48.6896 9.75128 48.6896 10.3512C48.6205 11.8178 47.7217 13.8843 46.4081 13.8843ZM48.6896 7.21813C47.0995 7.21813 46.2007 8.55137 46.2007 8.55137L46.3389 7.35146H44.2648C44.1957 8.1514 43.9882 9.41797 43.7808 10.3512L42.1215 18.6173H44.4722L45.0944 15.2842H45.1636C45.1636 15.2842 45.6476 15.5509 46.5464 15.5509C49.3119 15.5509 51.1095 12.8177 51.1095 10.0846C51.1095 8.61803 50.4181 7.21813 48.6896 7.21813ZM54.4281 4.01837C53.6676 4.01837 53.1145 4.61832 53.1145 5.3516C53.1145 6.01822 53.5293 6.48485 54.2207 6.48485C54.9812 6.48485 55.6035 6.01822 55.6035 5.15162C55.6035 4.485 55.1195 4.01837 54.4281 4.01837ZM51.1786 15.4175H53.5293L55.1195 7.41812H52.7688L51.1786 15.4175ZM61.0654 7.41812H59.4061L59.4752 7.01815C59.6135 6.21821 60.0975 5.55159 60.858 5.55159C61.2728 5.55159 61.6185 5.68491 61.6185 5.68491L62.1025 3.88504C62.1025 3.88504 61.6876 3.68506 60.858 3.68506C60.0283 3.68506 59.1987 3.88504 58.5764 4.41834C57.7468 5.08496 57.4011 6.01822 57.1936 6.95149L57.1245 7.35146H56.0183L55.6726 9.08467H56.7788L55.5343 15.4175H57.885L59.1295 9.08467H60.7197L61.0654 7.41812ZM66.6656 7.41812C66.6656 7.41812 65.2137 10.9512 64.5223 12.8844C64.4532 12.2844 63.9692 7.41812 63.9692 7.41812H61.4802L62.863 14.7509C62.863 14.8842 62.863 15.0176 62.7938 15.1509C62.5173 15.6842 62.0333 16.1508 61.5494 16.4841C61.1345 16.8174 60.5814 17.0174 60.2357 17.1507L60.858 19.0839C61.3419 19.0173 62.3099 18.6173 63.1395 17.884C64.1766 16.9508 65.2137 15.4175 66.1816 13.4177L69.0163 7.48478L66.6656 7.41812Z" fill="black"/>
</g>
<defs>
<clipPath id="clip0_11068_61">
<rect width="69" height="19" fill="white" transform="translate(0.0175781 0.0839844)"/>
</clipPath>
</defs>
</svg>
