<svg width="76" height="14" viewBox="0 0 76 14" fill="none" xmlns="http://www.w3.org/2000/svg">
<path d="M3.24958 13.856L4.96158 8.76798L0.833578 5.99998H5.88958L7.69758 0.543983L9.53758 5.99998H14.5616L10.4336 8.76798L12.1776 13.856L7.69758 10.608L3.24958 13.856ZM18.609 13.856L20.321 8.76798L16.193 5.99998H21.249L23.057 0.543983L24.897 5.99998H29.921L25.793 8.76798L27.537 13.856L23.057 10.608L18.609 13.856ZM33.9683 13.856L35.6803 8.76798L31.5523 5.99998H36.6083L38.4163 0.543983L40.2563 5.99998H45.2803L41.1523 8.76798L42.8963 13.856L38.4163 10.608L33.9683 13.856ZM49.3277 13.856L51.0397 8.76798L46.9117 5.99998H51.9677L53.7757 0.543983L55.6157 5.99998H60.6397L56.5117 8.76798L58.2557 13.856L53.7757 10.608L49.3277 13.856ZM64.6871 13.856L66.3991 8.76798L62.2711 5.99998H67.3271L69.1351 0.543983L70.9751 5.99998H75.9991L71.8711 8.76798L73.6151 13.856L69.1351 10.608L64.6871 13.856Z" fill="#FF4E41"/>
</svg>
